<svg id="Layer_1" data-name="Layer 1" xmlns="http://www.w3.org/2000/svg" viewBox="0 0 914.04 188.1"><defs><style>.cls-1{fill:none;stroke:#036;stroke-linejoin:round;stroke-width:26px;}.cls-2,.cls-3{fill:red;}.cls-3{fill-rule:evenodd;}</style></defs><title>librenms_logo_light</title><path d="M2,67.3H23.92l14.62,72.41L53.64,67.3H71.56L48.24,162.76l-23.39-.49Z" transform="translate(-0.96 -65.84)"/><path d="M77,67.3H109.4q11.42,0,17.23,1.81T136.38,77q3.93,6.12,3.93,15.24,0,15.93-13.58,20.46,16.15,5.71,16.15,23.31,0,9.25-4.39,15.62a21.09,21.09,0,0,1-10.83,8.49q-6.44,2.12-18.28,2.12H77ZM97,105.64h6.75q10.09,0,12.71-3.62a13.79,13.79,0,0,0,2.61-8.28A12.23,12.23,0,0,0,116.47,86q-2.61-3.37-11.18-3.37H97ZM97,146h10.24q14.41,0,14.41-12.42,0-6.91-3.59-9.73T107.25,121H97Z" transform="translate(-0.96 -65.84)"/><path d="M146.44,67.3H205.7V85.11H186.27v77.17H165.38V85.11H146.44Z" transform="translate(-0.96 -65.84)"/><path d="M238.77,67.3H262l24.44,59v-59h16.15v95H283.89l-29-68.75v68.75H238.77Z" transform="translate(-0.96 -65.84)"/><path d="M372,130.41H335.2v3.88q0,9.43,2.57,12.62a8.22,8.22,0,0,0,6.73,3.19q8.95,0,10.06-12L372,139.24q-4.66,24.49-27.89,24.49-14.33,0-21.77-9.67t-7.44-25.88q0-18.3,7.89-27.94T344,90.61a26.35,26.35,0,0,1,20,8.52Q372,107.65,372,130.41Zm-18.52-11.34q.07-1.25.07-1.95,0-13.57-9.16-13.57t-9.09,15.52Z" transform="translate(-0.96 -65.84)"/><path d="M386.45,70.43l19.08-.63V92h13v15.45h-13v25.81a82.86,82.86,0,0,0,.31,9.29,5.45,5.45,0,0,0,2.09,3.55q1.78,1.43,6,1.43,2.23,0,5.57-.14v14.89a55.33,55.33,0,0,1-12,1.46q-8.91,0-13.65-3.41a15,15,0,0,1-6.06-8.56q-1.32-5.15-1.32-16.35v-28h-7.8V92h7.8Z" transform="translate(-0.96 -65.84)"/><path d="M418.82,92h19.1l8.25,42.78L454.06,92h19.08l6.41,42.74L489,92h15.36l-17.62,70.28H470.35l-9.05-47.8-8.84,47.8H436.51Z" transform="translate(-0.96 -65.84)"/><path d="M563.93,127.14q0,36.6-28.51,36.6t-28.58-36.6q0-36.53,28.58-36.53T563.93,127.14Zm-20.26,0q0-13.45-1.84-18.19t-6.41-4.74q-4.44,0-6.38,4.5t-1.94,18.43q0,12.89,1.66,17.91t6.66,5q4.78,0,6.52-5T543.66,127.17Z" transform="translate(-0.96 -65.84)"/><path d="M575.41,92h17.27v17q4.66-17.88,16.64-17.88a18.64,18.64,0,0,1,3.34.35v19.13a28,28,0,0,0-3.27-.28Q595,110.3,595,132v30.27H575.41Z" transform="translate(-0.96 -65.84)"/><path d="M619.14,67.3h19.63V119.1L658.53,92h17.84L658.6,115.59l19.51,46.69h-21.2l-11-32.58-7.16,9.83v22.75H619.14Z" transform="translate(-0.96 -65.84)"/><path d="M778.65,114.75q0,49-34.47,49-17.13,0-25.83-12.49t-8.7-36.5q0-48.91,34.46-48.92,16.85,0,25.69,12.25T778.65,114.75Zm-22,0q0-19.2-3-25.57t-9.54-6.37q-6.47,0-9.47,6.4t-3,25.54q0,18.79,3,25.4t9.5,6.61q6.48,0,9.5-6.33T756.65,114.75Z" transform="translate(-0.96 -65.84)"/><path d="M791.47,92h18.1V102.5q5.77-11.41,16-11.41,9.66,0,16.05,8.59T848,126q0,18.51-6.26,27.9a20,20,0,0,1-17.58,9.39,16.86,16.86,0,0,1-13.41-6.19v29H791.47Zm19.29,41.5q0,10.07,1.63,13.1t6.62,3a7,7,0,0,0,6.59-4q2.15-4,2.15-19.52,0-12.92-1.87-17.51T819.56,104a8.05,8.05,0,0,0-6.24,2.88q-2.56,2.88-2.57,13.37Z" transform="translate(-0.96 -65.84)"/><path d="M905.86,108.91l-14,4.17q-2.78-9.53-10.3-9.53-6.13,0-6.13,6.12a6.32,6.32,0,0,0,2.3,5.29q2.3,1.81,9.47,4.31a77.46,77.46,0,0,1,11.84,5,17.63,17.63,0,0,1,6.34,6.51,19.22,19.22,0,0,1,2.58,10,21.54,21.54,0,0,1-7,16.35q-7,6.61-19.63,6.61-23.74,0-26.32-20.94l15.6-2.5q1.95,10.51,11.07,10.51,7.8,0,7.8-6.54a6.33,6.33,0,0,0-2.3-5.29q-2.3-1.81-8.91-3.9-12.12-3.9-16.64-9.39a19.44,19.44,0,0,1-4.53-12.73q0-10.16,7.14-16.28T882,90.54Q900.78,90.54,905.86,108.91Z" transform="translate(-0.96 -65.84)"/><line class="cls-1" x1="51.87" y1="152.09" x2="881.16" y2="152.09"/><rect class="cls-2" x="11.52" y="192.45" width="50.95" height="50.95" transform="translate(-144.18 24.1) rotate(-44.98)"/><polygon class="cls-3" points="841.98 151.86 878 115.84 914.04 151.86 878 187.87 841.98 151.86"/><polygon class="cls-3" points="112.11 152.09 148.14 116.08 184.18 152.09 148.14 188.1 112.11 152.09"/><rect class="cls-2" x="510.8" y="192.45" width="50.95" height="50.95" transform="translate(1.94 377) rotate(-44.98)"/><polygon class="cls-3" points="729.99 151.86 768.43 115.84 806.87 151.86 768.43 187.87 729.99 151.86"/><polygon class="cls-3" points="312.74 151.86 348.76 115.84 384.81 151.86 348.76 187.87 312.74 151.86"/></svg>