<svg id="Layer_1" data-name="Layer 1" xmlns="http://www.w3.org/2000/svg" viewBox="0 0 248.56 317.41"><defs><style>.cls-1{fill:none;stroke-width:15px;}.cls-1,.cls-4{stroke:#232162;stroke-miterlimit:10;}.cls-2,.cls-4{fill:#232162;}.cls-3{fill:#fff;}</style></defs><title>fiberhome</title><circle class="cls-1" cx="124.31" cy="115.9" r="108.4"/><rect class="cls-2" x="58.57" y="50.71" width="130.37" height="130.37"/><rect class="cls-3" x="69.93" y="141.99" width="107.66" height="21.73"/><rect class="cls-3" x="69.93" y="65.77" width="107.66" height="21.73"/><path class="cls-3" d="M126.13,139.3l-20-45.43h20.41l6.39,18.74c1.88,5.39,3.63,11.26,5,15.84h.25c1.38-4.92,3.38-10.38,5.51-16l7.13-18.6h20.28L177.83,113c1.88,5.32,3.25,10.18,4.51,15.23h.25c1.25-5.06,3.13-10.38,4.88-15.77l6.89-18.6h19.4L192,139.3H171.33l-7.14-19.55a92.82,92.82,0,0,1-4-14h-.25a112.39,112.39,0,0,1-4.88,14l-8,19.55Z" transform="translate(-36.18 -1.43)"/><path class="cls-4" d="M36.74,317.31,43.88,255h24l-1.2,10.42H49.73l-1.72,15H64.55l-1.2,10.42H46.81l-3.05,26.53Z" transform="translate(-36.18 -1.43)"/><path class="cls-4" d="M70.93,272.17h6.69l-5.18,45.15H65.75Zm2-17.17h6.72L78.33,266H71.64Z" transform="translate(-36.18 -1.43)"/><path class="cls-4" d="M78.5,317.31,85.65,255h6.73L90,275.82a14.59,14.59,0,0,1,3.52-3.68,6.11,6.11,0,0,1,3.35-1q3.89,0,6.28,4.72t2.39,14a57.59,57.59,0,0,1-1.86,15.24q-1.86,6.78-4.68,10t-5.71,3.23q-5.32,0-7.82-8.42l-.85,7.4Zm9-18.38A16.46,16.46,0,0,0,89,306.38q1.43,2.82,3.31,2.81a4,4,0,0,0,3-1.89q1.47-1.9,2.61-6.82A45.72,45.72,0,0,0,99,290.16a17.16,17.16,0,0,0-1.38-7.66q-1.38-2.69-3.28-2.69-2.9,0-4.85,5.62A41.15,41.15,0,0,0,87.53,298.93Z" transform="translate(-36.18 -1.43)"/><path class="cls-4" d="M132.37,298.52H115.55v1.15a15.75,15.75,0,0,0,1.42,7.27q1.42,2.72,3.42,2.72,3.3,0,5.21-6.29l6,1.83q-1.77,6.59-4.7,9.86a8.69,8.69,0,0,1-6.58,3.27q-4.84,0-8-5.63t-3.2-15.28a43.5,43.5,0,0,1,3.64-18.34q3.64-7.93,10.19-7.93,4.41,0,7.16,5t2.75,14.43A61.92,61.92,0,0,1,132.37,298.52Zm-5.67-7.44,0-1.19q0-5.14-1.27-7.61t-3.29-2.47q-2,0-3.72,2.85a21.41,21.41,0,0,0-2.23,8.42Z" transform="translate(-36.18 -1.43)"/><path class="cls-4" d="M139.48,272.17h6.28l-1,8.76q3.52-9.78,7.66-9.78a5.38,5.38,0,0,1,3.14,1.28l-2.56,10a3.52,3.52,0,0,0-1.93-.6,4,4,0,0,0-3,1.57,16.43,16.43,0,0,0-3.23,6.33,93.9,93.9,0,0,0-2.22,13.43L141,317.31h-6.69Z" transform="translate(-36.18 -1.43)"/><path class="cls-4" d="M177,289.47H163.87l-3.21,27.85h-7L160.79,255h7l-2.77,24.06h13.15L181,255h7l-7.15,62.32h-7Z" transform="translate(-36.18 -1.43)"/><path class="cls-4" d="M188.94,298.57q0-11.1,3.36-18.88,3.73-8.54,10.79-8.54,5.3,0,8.44,5.36t3.15,14.92q0,11.22-3.91,19.07t-10.24,7.84q-5.15,0-8.37-5.31T188.94,298.57Zm19.1-8.71a14.57,14.57,0,0,0-1.41-7q-1.41-2.55-3.58-2.55a4.53,4.53,0,0,0-3.42,1.87q-1.6,1.87-2.8,6.5a38.19,38.19,0,0,0-1.2,9.61,17.21,17.21,0,0,0,1.47,7.86q1.47,2.81,3.64,2.81,2.74,0,4.65-4.34A36.21,36.21,0,0,0,208,289.85Z" transform="translate(-36.18 -1.43)"/><path class="cls-4" d="M221.79,272.17h6.34l-.66,5.48q3.76-6.5,7.87-6.5,5.49,0,6.36,7.95a14.84,14.84,0,0,1,3.79-5.72,7.36,7.36,0,0,1,4.94-2.23,5.26,5.26,0,0,1,4.66,2.79,14.75,14.75,0,0,1,1.72,7.77q0,2.34-.65,8L253,317.31h-6.73l3.16-27.59q.6-5.19.6-5.87a5.58,5.58,0,0,0-.67-3,2.07,2.07,0,0,0-1.82-1q-2.46,0-4.43,4.5-1.56,3.52-2.61,12.43l-2.33,20.56h-6.73L234.58,290q.54-4.72.54-6.08a5.53,5.53,0,0,0-.71-3,2.11,2.11,0,0,0-1.82-1.11q-1.48,0-3.07,2.06a15.9,15.9,0,0,0-2.51,6q-.55,2.34-1.31,8.67l-2.4,20.75h-6.69Z" transform="translate(-36.18 -1.43)"/><path class="cls-4" d="M283.78,298.52H267v1.15a15.75,15.75,0,0,0,1.42,7.27q1.42,2.72,3.42,2.72,3.3,0,5.21-6.29l6,1.83q-1.77,6.59-4.7,9.86a8.69,8.69,0,0,1-6.58,3.27q-4.84,0-8-5.63t-3.2-15.28a43.5,43.5,0,0,1,3.64-18.34q3.64-7.93,10.19-7.93,4.41,0,7.16,5t2.75,14.43A61.92,61.92,0,0,1,283.78,298.52Zm-5.67-7.44,0-1.19q0-5.14-1.27-7.61t-3.29-2.47q-2,0-3.72,2.85a21.41,21.41,0,0,0-2.23,8.42Z" transform="translate(-36.18 -1.43)"/></svg>